<svg width="273" height="274" viewBox="0 0 273 274" fill="none" xmlns="http://www.w3.org/2000/svg">
<ellipse cx="136.5" cy="137" rx="136.5" ry="137" fill="#D2E6E4"/>
<circle cx="136.5" cy="137.5" r="100.5" fill="#0B7077"/>
<path d="M130.538 195V197.947H139.641V200.894H130.866V203.819H139.641V206.679H130.538V209.626H142.916V195H130.538Z" fill="white"/>
<path d="M126.861 195.26L123.3 198.209L123.13 198.17L121.115 193.948L117.22 193.059L120.277 199.288L120.233 199.479L114.787 203.722L118.639 204.601L122.205 201.631L122.375 201.67L124.385 205.913L128.28 206.802L125.228 200.552L125.267 200.382L130.713 196.139L126.861 195.26Z" fill="white"/>
<path d="M114.934 188.885L112.045 194.884L111.907 194.818C112.406 192.926 111.687 191.199 109.406 190.1C106.436 188.67 103.827 189.861 102.321 192.988C100.815 196.115 101.541 198.936 104.57 200.394C106.89 201.512 108.632 201.115 109.896 199.398L110.092 199.492L108.795 202.187L111.528 203.503L117.884 190.306L114.934 188.885ZM111.022 197.008L110.946 197.166C110.103 198.916 108.807 199.091 106.899 198.173C105.031 197.273 104.44 196.237 105.311 194.428C106.173 192.638 107.361 192.435 109.249 193.344C111.098 194.234 111.837 195.317 111.022 197.008Z" fill="white"/>
<path d="M97.5381 184.745L88.4189 196.18L90.979 198.222L100.098 186.787L97.5381 184.745Z" fill="white"/>
<path d="M86.7411 175.891C84.4136 172.973 81.1076 172.398 78.4109 174.549C75.6802 176.726 75.5216 180.064 77.849 182.982C80.1765 185.901 83.4655 186.489 86.1962 184.311C88.8928 182.161 89.0685 178.81 86.7411 175.891ZM84.4711 177.701C85.8594 179.442 85.6702 180.57 84.1682 181.768C82.6663 182.966 81.4902 182.927 80.1019 181.186C78.7272 179.462 78.937 178.289 80.4389 177.092C81.9408 175.894 83.0964 175.978 84.4711 177.701Z" fill="white"/>
<path d="M79.2247 165.747L73.521 168.494C72.2819 169.09 71.4449 168.912 70.8103 167.594C70.2325 166.395 70.4962 165.735 71.5779 165.214L72.6006 164.721L71.1799 161.771L69.5475 162.557C67.62 163.485 66.5413 165.119 67.6021 167.322C68.5587 169.309 70.2801 169.764 72.0058 169.272L72.0911 169.449L69.4752 170.709L70.7918 173.442L80.6454 168.697L79.2247 165.747Z" fill="white"/>
<path d="M73.3041 150.136C72.5317 146.753 70.3994 144.866 68.0796 145.395L67.8455 145.449L68.5741 148.641L68.7869 148.593C69.7021 148.384 70.3422 148.932 70.7745 150.826C71.2457 152.89 70.7182 153.817 69.0989 154.276L67.117 145.593C66.7455 145.633 66.4591 145.653 66.076 145.741C62.7347 146.503 61.4339 149.241 62.2305 152.731C63.032 156.243 65.7304 158.157 69.1356 157.38C72.9239 156.515 74.1153 153.691 73.3041 150.136ZM64.7351 152.227C64.3077 150.354 64.7306 149.362 66.1158 148.956L67.4079 154.617C65.9905 154.784 65.1675 154.121 64.7351 152.227Z" fill="white"/>
<path d="M73.132 126.637L65.8959 124.985L63.6321 124.603L63.6856 124.369L66.1097 124.049L73.1745 122.526L74.0586 118.653L68.3539 114.216L66.3087 112.876L66.3621 112.642L68.5725 113.258L75.8085 114.91L76.5371 111.718L62.2779 108.463L61.2869 112.805L67.5718 117.643L70.6168 119.703L70.5634 119.938L66.916 120.516L59.1302 122.254L58.1441 126.574L72.4033 129.829L73.132 126.637Z" fill="white"/>
<path d="M80.558 108.989C82.1777 105.625 81.2608 102.397 78.1532 100.901C75.0064 99.3855 71.9307 100.691 70.311 104.054C68.6914 107.417 69.5886 110.636 72.7355 112.151C75.843 113.647 78.9384 112.352 80.558 108.989ZM77.9422 107.729C76.9761 109.735 75.8775 110.054 74.1468 109.22C72.416 108.387 71.9411 107.31 72.9072 105.304C73.8638 103.318 75.0112 102.998 76.742 103.831C78.4728 104.665 78.8988 105.742 77.9422 107.729Z" fill="white"/>
<path d="M87.696 99.5608L82.7465 95.6137C81.6713 94.7562 81.4689 93.9247 82.3808 92.7812C83.211 91.7401 83.9201 91.6913 84.8588 92.4399L85.7463 93.1476L87.7879 90.5875L86.3713 89.4579C84.6987 88.124 82.7584 87.8611 81.234 89.7726C79.8594 91.4964 80.1962 93.2448 81.3881 94.5862L81.2656 94.7398L78.9956 92.9296L77.1037 95.302L85.6544 102.121L87.696 99.5608Z" fill="white"/>
<path d="M100.187 90.4218C102.901 88.2577 103.675 85.5178 102.192 83.6575L102.042 83.4698L99.4821 85.5114L99.6182 85.682C100.203 86.4159 99.9874 87.2304 98.4684 88.4417C96.8129 89.762 95.7493 89.6887 94.633 88.429L101.596 82.8759C101.399 82.5585 101.256 82.3094 101.011 82.0022C98.8746 79.3226 95.8437 79.3384 93.0447 81.5706C90.2286 83.8163 89.6747 87.0781 91.8524 89.8089C94.2751 92.8468 97.3368 92.6947 100.187 90.4218ZM94.5859 83.6083C96.0878 82.4105 97.1652 82.3611 98.1318 83.4331L93.5919 87.0535C92.8267 85.8488 93.0669 84.8196 94.5859 83.6083Z" fill="white"/>
<path d="M127.145 76.5032L126.518 73.7577L118.58 75.5696L119.207 78.3151L127.145 76.5032Z" fill="white"/>
<path d="M155.363 83.8075L156.018 80.9344L147.144 78.9088L147.799 76.0356L156.355 77.9884L157.006 75.1365L148.45 73.1838L149.087 70.3958L157.961 72.4214L158.617 69.5482L146.55 66.794L143.295 81.0532L155.363 83.8075Z" fill="white"/>
<path d="M159.363 84.5401L163.492 82.4578L163.649 82.5335L164.673 87.0975L168.273 88.8308L166.679 82.0785L166.764 81.9015L173.018 78.9771L169.458 77.2628L165.32 79.3648L165.163 79.289L164.148 74.7054L160.548 72.9721L162.133 79.7441L162.057 79.9015L155.803 82.8258L159.363 84.5401Z" fill="white"/>
<path d="M170.48 92.8957L174.632 87.6902L174.751 87.7855C173.843 89.5188 174.16 91.3627 176.14 92.9415C178.717 94.9968 181.525 94.4163 183.689 91.7026C185.853 88.9889 185.774 86.0775 183.146 83.9815C181.132 82.3754 179.345 82.3748 177.731 83.7682L177.561 83.6321L179.425 81.2939L177.053 79.402L167.92 90.8541L170.48 92.8957ZM176.102 85.847L176.21 85.7104C177.422 84.1914 178.724 84.3088 180.38 85.629C182.001 86.922 182.347 88.0636 181.095 89.6338C179.857 91.1869 178.653 91.1205 177.015 89.8139C175.41 88.5345 174.931 87.3147 176.102 85.847Z" fill="white"/>
<path d="M186.606 100.984L198.041 91.8653L195.999 89.3052L184.564 98.4243L186.606 100.984Z" fill="white"/>
<path d="M194.587 113.098C196.207 116.461 199.302 117.757 202.41 116.26C205.557 114.745 206.454 111.526 204.834 108.163C203.215 104.8 200.139 103.495 196.992 105.01C193.885 106.507 192.968 109.734 194.587 113.098ZM197.203 111.838C196.237 109.832 196.673 108.774 198.404 107.941C200.134 107.107 201.272 107.407 202.238 109.413C203.195 111.4 202.73 112.496 200.999 113.33C199.268 114.163 198.16 113.824 197.203 111.838Z" fill="white"/>
<path d="M199.602 124.742L205.774 123.334C207.115 123.028 207.891 123.388 208.217 124.814C208.513 126.112 208.109 126.697 206.939 126.964L205.832 127.217L206.561 130.409L208.327 130.006C210.413 129.53 211.828 128.177 211.284 125.793C210.793 123.644 209.216 122.817 207.425 122.912L207.381 122.721L210.211 122.075L209.536 119.116L198.874 121.55L199.602 124.742Z" fill="white"/>
<path d="M201.865 141.353C201.865 144.824 203.524 147.138 205.903 147.138H206.143V143.863H205.925C204.986 143.863 204.484 143.187 204.484 141.244C204.484 139.126 205.205 138.34 206.886 138.253V147.16C207.257 147.203 207.54 147.247 207.933 147.247C211.361 147.247 213.238 144.867 213.238 141.287C213.238 137.685 211.033 135.219 207.54 135.219C203.655 135.219 201.865 137.707 201.865 141.353ZM210.684 141.222C210.684 143.143 210.051 144.016 208.61 144.103V138.297C210.029 138.45 210.684 139.279 210.684 141.222Z" fill="white"/>
<path d="M195.109 163.322L201.796 166.542L203.918 167.419L203.814 167.635L201.38 167.408L194.153 167.32L192.429 170.899L197.004 176.494L198.699 178.256L198.595 178.472L196.577 177.379L189.89 174.159L188.47 177.109L201.647 183.455L203.579 179.443L198.529 173.328L196.018 170.641L196.123 170.425L199.807 170.673L207.785 170.71L209.707 166.718L196.53 160.372L195.109 163.322Z" fill="white"/>
<path d="M184.128 178.773C181.801 181.691 181.976 185.042 184.673 187.193C187.404 189.371 190.693 188.782 193.02 185.864C195.347 182.945 195.189 179.608 192.458 177.43C189.761 175.28 186.455 175.854 184.128 178.773ZM186.398 180.583C187.786 178.842 188.928 178.776 190.43 179.973C191.932 181.171 192.155 182.326 190.767 184.067C189.392 185.791 188.203 185.848 186.701 184.65C185.199 183.452 185.023 182.307 186.398 180.583Z" fill="white"/>
<path d="M174.642 185.532L178.589 190.481C179.446 191.557 179.458 192.412 178.315 193.324C177.274 194.154 176.572 194.044 175.823 193.106L175.115 192.218L172.555 194.26L173.685 195.676C175.019 197.349 176.852 198.037 178.763 196.513C180.487 195.138 180.548 193.358 179.684 191.785L179.838 191.663L181.648 193.933L184.021 192.041L177.202 183.49L174.642 185.532Z" fill="white"/>
<path d="M160.857 191.498C157.73 193.004 156.365 195.503 157.397 197.647L157.501 197.863L160.452 196.442L160.357 196.246C159.95 195.4 160.341 194.654 162.092 193.811C164 192.892 165.02 193.2 165.828 194.677L157.804 198.541C157.925 198.895 158.009 199.169 158.18 199.523C159.667 202.611 162.625 203.27 165.851 201.717C169.096 200.154 170.362 197.097 168.846 193.95C167.16 190.449 164.141 189.916 160.857 191.498ZM164.801 199.387C163.071 200.221 162.009 200.029 161.305 198.769L166.537 196.25C167.015 197.594 166.552 198.544 164.801 199.387Z" fill="white"/>
<path d="M162.522 133.605C166.29 135.781 166.29 141.219 162.522 143.395L130.728 161.751C126.96 163.926 122.25 161.207 122.25 156.856L122.25 120.144C122.25 115.793 126.96 113.074 130.728 115.249L162.522 133.605Z" fill="white"/>
</svg>
