<svg width="557" height="272" viewBox="0 0 557 272" fill="none" xmlns="http://www.w3.org/2000/svg">
<path fill-rule="evenodd" clip-rule="evenodd" d="M591.843 174.849C683.538 199.942 781.228 213.431 846.03 283.547C922.358 366.133 978.579 473.707 962.352 575.739C945.6 681.069 856.435 751.707 763.19 804.416C667.96 858.247 559.364 889.47 443.962 868.772C314.258 845.509 166.867 800.173 102.932 685.996C40.6447 574.761 105.513 453.371 150.436 344.579C186.123 258.154 237.666 176.312 327.687 141.697C409.497 110.239 501.828 150.215 591.843 174.849Z" stroke="white"/>
<path fill-rule="evenodd" clip-rule="evenodd" d="M654.569 134.515C774.866 169.165 847.718 288.85 903.547 398.371C952.165 493.748 963.402 596.75 939.703 693.87C916.72 788.061 869.181 881.505 776.839 917.635C690.596 951.379 595.294 881.285 498.663 866.434C370.703 846.769 220.142 912.654 128.956 818.067C35.6197 721.249 63.3315 571.106 102.377 455.367C137.498 351.259 230.319 288.136 326.606 232.189C426.872 173.929 534.097 99.8139 654.569 134.515Z" stroke="white"/>
<path fill-rule="evenodd" clip-rule="evenodd" d="M674.478 160.647C789.763 168.999 913.002 244.552 961.153 349.038C1006.62 447.697 922.607 537.938 893.112 635.075C867.631 718.993 872.034 816.454 802.788 870.582C724.032 932.142 612.504 972.461 509.566 934.88C409.98 898.522 384.788 779.818 322.345 695.177C252.34 600.286 96.9952 520.838 127.497 416.988C158.362 311.902 334.125 358.303 435.201 310.934C524.781 268.953 570.444 153.11 674.478 160.647Z" stroke="white"/>
<path fill-rule="evenodd" clip-rule="evenodd" d="M600.291 182.921C684.719 217.125 782.264 220.414 840.996 289.475C906.259 366.215 920.105 463.939 919.197 557.91C918.01 680.633 931.238 822.553 835.141 895.241C732.724 972.709 577.189 961.31 443.824 917.483C315.944 875.458 204.268 784.629 142.872 667.744C86.6225 560.656 111.118 444.954 138.084 335.415C163.967 230.272 185.104 101.494 290.86 66.6021C392.958 32.9174 493.991 139.857 600.291 182.921Z" stroke="white"/>
<path fill-rule="evenodd" clip-rule="evenodd" d="M584.048 235.58C699.496 264.213 857.863 229.143 914.498 332.048C971.748 436.072 833.673 522.649 799.65 627.33C771.862 712.824 815.651 834.939 736.411 879.968C657.006 925.092 554.87 844.641 459.405 820.681C357.41 795.083 228.162 822.265 166.964 737.05C105.489 651.45 179.558 551.606 197.35 455.786C215.961 355.557 182.676 223.369 271.764 172.637C361.094 121.768 476.537 208.915 584.048 235.58Z" stroke="white"/>
<path fill-rule="evenodd" clip-rule="evenodd" d="M596.646 204.197C679.78 232.101 743.318 290.877 800.478 357.181C871.205 439.222 957.337 521.49 957.296 622.539C957.25 738.823 908.113 863.781 800.257 908.044C696.105 950.786 578.003 865.352 464.298 824.857C363.905 789.102 253.442 771.789 186.543 689.474C113.415 599.495 71.2149 480.584 102.111 379.208C131.66 282.253 236.944 235.915 335.392 201.075C417.595 171.984 508.543 174.625 596.646 204.197Z" stroke="white"/>
<path fill-rule="evenodd" clip-rule="evenodd" d="M591.336 185.538C689.121 215.047 753.893 301.688 810.175 385.891C867.115 471.079 916.203 562.585 907.002 657.801C896.813 763.24 858.904 879.264 758.776 917.79C662.531 954.823 554.576 877.555 453.535 832.283C375.031 797.108 302.918 756.112 249.493 689.601C188.472 613.633 125.416 527.93 137.334 438.63C149.79 345.303 227.703 280.972 310.165 235.002C393.749 188.407 492.346 155.666 591.336 185.538Z" stroke="white"/>
</svg>
