<svg width="31" height="27" viewBox="0 0 31 27" fill="none" xmlns="http://www.w3.org/2000/svg">
<g clip-path="url(#clip0_5_7320)">
<path d="M26.2881 11.5387C24.6334 11.5387 23.2881 10.0813 23.2881 8.2887C23.2881 6.49612 24.6334 5.0387 26.2881 5.0387C27.9428 5.0387 29.2881 6.49612 29.2881 8.2887C29.2881 10.0813 27.9428 11.5387 26.2881 11.5387ZM5.28809 11.5387C3.6334 11.5387 2.28809 10.0813 2.28809 8.2887C2.28809 6.49612 3.6334 5.0387 5.28809 5.0387C6.94277 5.0387 8.28809 6.49612 8.28809 8.2887C8.28809 10.0813 6.94277 11.5387 5.28809 11.5387ZM3.78809 13.1637H6.78809C7.61309 13.1637 8.3584 13.5242 8.90215 14.1082C7.01309 15.2305 5.67246 17.2567 5.38184 19.6637H2.28809C1.4584 19.6637 0.788086 18.9375 0.788086 18.0387V16.4137C0.788086 14.6211 2.1334 13.1637 3.78809 13.1637ZM15.7881 13.1637C12.8865 13.1637 10.5381 10.6196 10.5381 7.4762C10.5381 4.33284 12.8865 1.7887 15.7881 1.7887C18.6896 1.7887 21.0381 4.33284 21.0381 7.4762C21.0381 10.6196 18.6896 13.1637 15.7881 13.1637ZM12.1881 14.7887H12.5771C13.5521 15.2965 14.635 15.6012 15.7881 15.6012C16.9412 15.6012 18.0193 15.2965 18.999 14.7887H19.3881C22.3693 14.7887 24.7881 17.409 24.7881 20.6387V22.1012C24.7881 23.4469 23.7803 24.5387 22.5381 24.5387H9.03809C7.7959 24.5387 6.78809 23.4469 6.78809 22.1012V20.6387C6.78809 17.409 9.20684 14.7887 12.1881 14.7887ZM22.674 14.1082C23.2178 13.5242 23.9631 13.1637 24.7881 13.1637H27.7881C29.4428 13.1637 30.7881 14.6211 30.7881 16.4137V18.0387C30.7881 18.9375 30.1178 19.6637 29.2881 19.6637H26.199C25.9037 17.2567 24.5631 15.2305 22.674 14.1082Z" fill="#0B7077"/>
</g>
<defs>
<clipPath id="clip0_5_7320">
<rect width="30" height="26" fill="white" transform="matrix(-1 0 0 1 30.7881 0.163696)"/>
</clipPath>
</defs>
</svg>
